<svg width="285" height="84" viewBox="0 0 285 84" fill="none" xmlns="http://www.w3.org/2000/svg">
<path d="M24.4505 82.3434C16.7043 80.1617 9.1091 75.6774 3.8946 70.9347C3.84425 71.5136 3.79391 72.0958 3.74356 72.6748C3.74356 73.4663 3.44507 73.6724 2.55321 73.257C2.45252 73.2112 2.35542 73.1654 2.25473 73.1163C1.51031 72.7664 1.21183 72.2856 1.21183 71.6085C0.816246 63.0847 0.417067 54.5707 0.0214844 46.0698C0.0214844 45.3927 0.168929 45.1278 1.06438 45.5235C1.26218 45.6119 1.45997 45.6969 1.66136 45.7852C2.40577 46.109 2.55321 46.3969 2.55681 47.0739C2.60716 47.8491 2.6575 48.621 2.70426 49.3962C3.15018 59.1728 11.4934 76.3447 24.1556 80.0473C32.0493 82.2878 37.2638 78.8632 37.2638 71.53C37.2638 60.4582 29.0716 54.0146 18.9411 45.0754C10.001 37.1993 1.95624 27.9591 1.95624 16.4818C1.95624 4.64459 11.0439 -1.16442 28.3236 1.34104C34.7285 2.26342 41.1333 4.42871 45.7509 6.83605C45.8516 6.15899 45.9487 5.48192 46.0493 4.80486C46.0493 4.08527 46.3478 3.73529 47.2397 3.74838C47.3404 3.74838 47.4375 3.74838 47.5382 3.75165C48.2826 3.76146 48.4336 4.12125 48.4336 4.84411V29.5062C48.4336 30.2291 48.2826 30.5856 47.3907 30.5398C47.1426 30.5267 46.8945 30.5137 46.6463 30.5006C45.9019 30.4581 45.7545 30.0885 45.7545 29.3689C45.7545 28.8881 45.7545 28.4105 45.7545 27.9297C45.7545 16.5864 37.4113 4.86373 28.0287 3.51942C21.3254 2.52181 17.7508 5.73705 17.7508 11.8633C17.7508 20.8254 25.0511 28.2372 34.5846 35.4984C44.4167 42.8349 53.9502 49.7331 53.9502 63.3464C53.9502 77.3357 42.1834 87.351 24.4577 82.3368L24.4505 82.3434Z" fill="white"/>
<path d="M128.708 20.4332C126.946 20.842 126.528 21.9639 124.766 27.4393C123.867 30.7167 122.968 33.9843 122.069 37.2388C119.063 48.5101 116.056 59.644 113.05 70.634C112.946 71.105 112.841 71.3046 112.219 71.3961C110.421 71.6676 108.627 71.9293 106.828 72.1811C106.415 72.24 106.311 72.1648 106.102 71.6513C102.819 60.7659 99.5353 49.9852 96.252 39.2928C96.1837 39.3027 96.1153 39.3157 96.0434 39.3256C92.4832 51.0744 88.9229 62.6172 85.3627 73.9376C85.2584 74.3857 85.1541 74.5689 84.6362 74.6081C82.8381 74.7389 81.0436 74.8534 79.2455 74.9483C78.832 74.9712 78.6234 74.8927 78.4148 74.3791C74.7179 62.1626 71.0174 50.0408 67.3205 37.9976C65.0405 30.7232 64.8319 30.7494 62.9655 30.8181C62.7246 30.8279 62.48 30.8344 62.2391 30.8443C61.6169 30.8639 61.3041 30.7854 61.3076 30.2751V30.02C61.3076 29.5948 61.6169 29.4999 62.2391 29.4803C69.4962 29.2317 76.7534 28.571 84.0141 27.6159C84.6362 27.5342 84.9455 27.58 84.9491 28.0183C84.9491 28.1066 84.9491 28.1949 84.9491 28.2832C84.9491 28.8098 84.6398 28.9406 84.0141 29.0224C83.6329 29.0715 83.2553 29.1205 82.8741 29.1696C81.5255 29.3397 80.7991 29.5098 80.7991 30.9064C80.7991 32.0414 81.2127 33.8305 81.9391 36.8103C83.9422 44.3463 85.9489 51.9183 87.9519 59.5295C87.9879 59.5263 88.0203 59.523 88.0562 59.5197C89.7141 53.9953 91.3755 48.4218 93.0334 42.7992C93.8641 40.1106 94.8998 36.0351 94.8998 33.0979C94.8998 29.1794 93.447 27.6487 91.0627 28.0215C90.8541 28.0542 90.6491 28.0869 90.4405 28.1164C89.8184 28.2112 89.5091 28.1687 89.5091 27.6388V27.3739C89.5091 26.9323 89.8184 26.7982 90.4405 26.7001C97.0432 25.6796 103.642 24.4432 110.245 23.0695C110.867 22.9386 111.176 22.9648 111.176 23.4195C111.176 23.511 111.176 23.6026 111.176 23.6909C111.176 24.2372 110.867 24.3909 110.245 24.5185C109.864 24.597 109.486 24.6755 109.105 24.7507C107.861 25.0058 107.134 25.238 107.134 26.5922C107.134 27.6781 107.548 29.4901 108.483 32.6596C110.73 40.2839 112.974 47.9573 115.222 55.6863C115.258 55.6797 115.29 55.6732 115.326 55.6667C116.779 49.9656 118.228 44.2285 119.681 38.4555C120.408 35.1879 121.339 30.6709 121.339 27.4491C121.339 23.7694 119.886 22.4415 117.502 22.9681C117.157 23.0433 116.812 23.1185 116.466 23.1938C115.844 23.3279 115.431 23.3279 115.431 22.7784V22.5036C115.431 22.0457 115.74 21.8887 116.362 21.7513C120.649 20.8126 124.932 19.8248 129.218 18.8174C129.841 18.6702 130.15 18.6898 130.15 19.1543C130.15 19.2459 130.15 19.3407 130.15 19.4323C130.15 19.9916 129.837 20.1552 129.218 20.3023C129.046 20.3416 128.873 20.3841 128.701 20.4234L128.708 20.4332Z" fill="white"/>
<path d="M158.258 63.4378C144.158 65.8354 134.93 58.3844 134.93 42.6255C134.93 27.2754 143.122 14.408 156.91 11.0717C166.968 8.64801 176.092 13.6328 176.092 28.0212C176.092 28.152 176.092 28.2829 176.092 28.4137C176.092 30.6738 175.261 31.5995 172.359 32.1294C164.789 33.5195 157.223 35.0797 149.653 36.6856C149.653 37.3823 149.653 38.0823 149.653 38.779C149.653 52.7684 151.415 61.7174 161.369 60.0165C169.043 58.7213 173.085 52.3661 173.812 43.2208C173.916 42.6157 174.125 42.1872 174.643 42.1022C174.851 42.1022 175.056 42.0989 175.265 42.0956C175.887 41.9909 175.991 42.3671 175.887 42.9755C175.265 53.0235 170.288 61.4165 158.262 63.4411L158.258 63.4378ZM156.496 12.8968C151.206 14.1463 149.653 20.7076 149.653 34.6872C152.695 34.0363 155.734 33.3919 158.776 32.7606C161.991 32.0967 163.027 31.1187 163.027 27.9263C163.027 15.7392 161.369 11.7553 156.496 12.8936V12.8968Z" fill="white"/>
<path d="M210.511 57.4491C196.41 57.8449 187.183 49.4356 187.183 32.6365C187.183 16.3576 195.375 3.11393 209.163 1.65841C219.218 0.60847 228.345 7.92207 228.345 23.1707V23.5861C228.345 25.9836 227.514 26.7752 224.612 26.7458C217.042 26.6901 209.476 27.0957 201.905 27.8317V30.0558C201.905 44.948 203.668 54.5381 213.622 54.3124C221.293 54.211 225.338 48.366 226.065 38.8021C226.169 38.1806 226.378 37.7718 226.896 37.7881C227.104 37.8306 227.309 37.8699 227.518 37.9124C228.14 37.9353 228.244 38.354 228.14 38.9754C227.518 49.537 222.541 57.2038 210.515 57.4459L210.511 57.4491ZM208.749 3.5326C203.463 4.06902 201.905 10.8756 201.905 25.7122C204.948 25.408 207.987 25.1594 211.029 24.9697C214.244 24.78 215.28 23.9328 215.28 20.5442C215.28 7.62442 213.622 3.07141 208.749 3.5326Z" fill="white"/>
<path d="M265.048 64.2655C260.901 62.9768 257.377 60.1541 255.093 56.6347C255.025 56.6183 254.957 56.6019 254.885 56.5856V71.5726C254.885 79.4978 254.989 79.9394 256.96 80.4594C258.341 80.829 259.725 81.2215 261.106 81.6337C261.833 81.8528 262.142 82.0556 262.142 82.7032V82.9191C262.142 83.4588 261.829 83.4686 261.106 83.2495C252.986 80.8094 244.862 79.1315 236.742 78.0619C236.12 77.9801 235.811 77.8362 235.811 77.3129V77.1036C235.811 76.4723 236.12 76.4069 236.742 76.4886C237.605 76.5999 238.472 76.7209 239.335 76.8452C241.201 77.1232 241.306 76.7274 241.306 68.9166V12.1545C241.306 4.45495 241.201 4.12133 239.335 3.99049C238.472 3.93162 237.605 3.87928 236.742 3.83676C236.12 3.80405 235.811 3.6863 235.811 3.0583V2.84897C235.811 2.22097 236.12 2.12611 236.742 2.15882C242.273 2.43684 247.8 2.99289 253.331 3.88255C253.953 3.98395 254.266 4.5727 254.266 5.53433V13.3451C254.302 13.3516 254.335 13.3582 254.371 13.3647C256.546 6.7151 260.797 3.7321 267.641 5.54741C277.386 8.13464 284.021 22.4577 284.021 40.3361C284.021 59.67 277.178 68.1545 265.048 64.2753V64.2655ZM262.146 9.03413C258.308 8.16408 256.442 11.6083 254.888 16.6617V53.7007C256.133 56.2291 258.308 58.6658 261.419 59.5293C266.81 61.0634 269.302 54.2829 269.298 35.8844C269.298 17.849 267.119 10.192 262.146 9.0374V9.03413Z" fill="white"/>
</svg>
