<?xml version="1.0" encoding="utf-8"?>
<!-- Generator: Adobe Illustrator 27.2.0, SVG Export Plug-In . SVG Version: 6.00 Build 0)  -->
<svg version="1.1" id="Logo" xmlns="http://www.w3.org/2000/svg" xmlns:xlink="http://www.w3.org/1999/xlink" x="0px" y="0px"
	 viewBox="0 0 248 204" style="enable-background:new 0 0 248 204;" xml:space="preserve">
<style type="text/css">
	.st0{fill:url(#white_background_00000125562875499476097930000000061236677096005782_);}
</style>
<g id="Logo_1_">
	
		<linearGradient id="white_background_00000053525201626117435990000001746042054939043712_" gradientUnits="userSpaceOnUse" x1="1" y1="101.5037" x2="247.15" y2="101.5037">
		<stop  offset="1" style="stop-color:#FFFFFF"/>
		<stop  offset="1" style="stop-color:#F6F6F6"/>
		<stop  offset="1" style="stop-color:#C8C8C8"/>
		<stop  offset="1" style="stop-color:#9D9D9D"/>
		<stop  offset="1" style="stop-color:#777777"/>
		<stop  offset="1" style="stop-color:#575757"/>
		<stop  offset="1" style="stop-color:#3B3B3B"/>
		<stop  offset="1" style="stop-color:#252525"/>
		<stop  offset="1" style="stop-color:#141414"/>
		<stop  offset="1" style="stop-color:#090909"/>
		<stop  offset="1" style="stop-color:#020202"/>
		<stop  offset="1" style="stop-color:#000000"/>
	</linearGradient>
	<path id="white_background" style="fill:url(#white_background_00000053525201626117435990000001746042054939043712_);" d="
		M221.9,51.3c0.1,2.2,0.1,4.3,0.1,6.5c0,66.7-50.8,143.7-143.7,143.7v0c-27.4,0-54.3-7.8-77.4-22.6c4,0.5,8,0.7,12,0.7
		c22.7,0,44.8-7.6,62.7-21.7c-21.6-0.4-40.6-14.5-47.2-35.1c7.6,1.5,15.4,1.2,22.8-0.9c-23.6-4.8-40.5-25.5-40.5-49.5
		c0-0.2,0-0.4,0-0.6c7,3.9,14.9,6.1,22.9,6.3c-22.2-14.8-29-44.3-15.6-67.4c25.6,31.5,63.5,50.7,104.1,52.8
		c-4.1-17.5,1.5-35.9,14.6-48.2c20.3-19.1,52.3-18.1,71.4,2.2c11.3-2.2,22.1-6.4,32.1-12.3c-3.8,11.7-11.7,21.6-22.2,27.9
		c10-1.2,19.8-3.9,29-8C240.4,35.3,231.8,44.1,221.9,51.3z"/>
</g>
</svg>
