<svg width="230" height="71" viewBox="0 0 230 71" fill="none" xmlns="http://www.w3.org/2000/svg">
<g clip-path="url(#clip0_3557_1040)">
<path d="M19.7841 69.6439C13.5107 67.8015 7.3597 64.0143 3.13668 60.0089C3.09591 60.4979 3.05513 60.9896 3.01436 61.4785C3.01436 62.147 2.77263 62.321 2.05035 61.9702C1.9688 61.9315 1.89016 61.8928 1.80862 61.8514C1.20574 61.5558 0.964013 61.1498 0.964013 60.578C0.643646 53.3794 0.320367 46.189 0 39.0098C0 38.438 0.119409 38.2142 0.844603 38.5485C1.00479 38.6231 1.16497 38.6949 1.32807 38.7695C1.93094 39.0429 2.05035 39.286 2.05326 39.8578C2.09403 40.5125 2.13481 41.1644 2.17267 41.8191C2.53381 50.0756 9.29063 64.5778 19.5453 67.7048C25.9381 69.597 30.1611 66.7048 30.1611 60.5117C30.1611 51.1612 23.5266 45.7195 15.3223 38.17C8.08198 31.5184 1.56688 23.7148 1.56688 14.0218C1.56688 4.02497 8.92658 -0.880911 22.9208 1.23503C28.1078 2.014 33.2948 3.84266 37.0344 5.87573C37.1159 5.30393 37.1946 4.73213 37.2761 4.16033C37.2761 3.55261 37.5179 3.25705 38.2401 3.2681C38.3217 3.2681 38.4003 3.2681 38.4819 3.27086C39.0847 3.27914 39.2071 3.583 39.2071 4.19347V25.0214C39.2071 25.6319 39.0847 25.9329 38.3625 25.8943C38.1615 25.8832 37.9605 25.8722 37.7596 25.8611C37.1567 25.8252 37.0373 25.5131 37.0373 24.9054C37.0373 24.4993 37.0373 24.096 37.0373 23.6899C37.0373 14.1102 30.2805 4.21005 22.682 3.07473C17.2532 2.23222 14.3583 4.94759 14.3583 10.1214C14.3583 17.6902 20.2705 23.9496 27.9913 30.082C35.9539 36.2778 43.6747 42.1036 43.6747 53.6004C43.6747 65.4148 34.1453 73.873 19.7899 69.6384L19.7841 69.6439Z" fill="white"/>
<path d="M104.218 17.3591C102.791 17.7044 102.454 18.6518 101.026 23.276C100.298 26.0438 99.5703 28.8034 98.8421 31.5519C96.4074 41.0709 93.9726 50.4738 91.5378 59.7552C91.4533 60.153 91.3689 60.3215 90.865 60.3988C89.4088 60.6281 87.9555 60.8491 86.4993 61.0618C86.1644 61.1115 86.0799 61.048 85.911 60.6143C83.2519 51.4213 80.5929 42.3167 77.9338 33.2866C77.8785 33.2949 77.8232 33.306 77.7649 33.3142C74.8816 43.2365 71.9983 52.9847 69.115 62.5451C69.0306 62.9236 68.9461 63.0783 68.5267 63.1114C67.0705 63.2219 65.6172 63.3186 64.161 63.3987C63.8261 63.418 63.6571 63.3517 63.4882 62.9181C60.4942 52.6008 57.4974 42.3636 54.5034 32.1927C52.6569 26.0493 52.488 26.0714 50.9764 26.1295C50.7813 26.1377 50.5833 26.1433 50.3881 26.1515C49.8843 26.1681 49.6309 26.1018 49.6338 25.6709V25.4554C49.6338 25.0963 49.8843 25.0162 50.3881 24.9997C56.2654 24.7897 62.1427 24.2317 68.0229 23.4251C68.5267 23.3561 68.7772 23.3948 68.7801 23.7649C68.7801 23.8395 68.7801 23.9141 68.7801 23.9887C68.7801 24.4334 68.5296 24.5439 68.0229 24.6129C67.7141 24.6544 67.4083 24.6958 67.0996 24.7372C66.0075 24.8809 65.4192 25.0245 65.4192 26.204C65.4192 27.1626 65.7541 28.6736 66.3424 31.19C67.9646 37.5544 69.5897 43.9492 71.212 50.3771C71.2411 50.3743 71.2673 50.3716 71.2964 50.3688C72.6391 45.7033 73.9846 40.9963 75.3272 36.2478C76 33.9772 76.8388 30.5354 76.8388 28.0548C76.8388 24.7455 75.6622 23.4528 73.7312 23.7677C73.5623 23.7953 73.3963 23.8229 73.2274 23.8478C72.7235 23.9279 72.473 23.892 72.473 23.4445V23.2207C72.473 22.8478 72.7235 22.7346 73.2274 22.6517C78.5746 21.7898 83.9189 20.7457 89.2661 19.5855C89.7699 19.475 90.0204 19.4971 90.0204 19.8811C90.0204 19.9584 90.0204 20.0358 90.0204 20.1104C90.0204 20.5717 89.7699 20.7015 89.2661 20.8092C88.9574 20.8755 88.6516 20.9418 88.3428 21.0053C87.3352 21.2208 86.7468 21.4169 86.7468 22.5605C86.7468 23.4776 87.0818 25.0079 87.839 27.6846C89.6593 34.1236 91.4766 40.604 93.2969 47.1314C93.326 47.1259 93.3522 47.1203 93.3814 47.1148C94.558 42.3001 95.7317 37.455 96.9083 32.5795C97.4966 29.8199 98.2509 26.0051 98.2509 23.2843C98.2509 20.1766 97.0743 19.0551 95.1434 19.4999C94.8638 19.5634 94.5842 19.6269 94.3046 19.6905C93.8007 19.8037 93.4658 19.8037 93.4658 19.3397V19.1076C93.4658 18.7209 93.7163 18.5883 94.2201 18.4723C97.6917 17.6795 101.16 16.8453 104.632 15.9945C105.136 15.8702 105.386 15.8868 105.386 16.279C105.386 16.3564 105.386 16.4365 105.386 16.5138C105.386 16.9862 105.133 17.1243 104.632 17.2486C104.492 17.2817 104.352 17.3176 104.213 17.3508L104.218 17.3591Z" fill="white"/>
<path d="M128.15 53.6779C116.73 55.7027 109.257 49.4101 109.257 36.1012C109.257 23.1376 115.891 12.2707 127.058 9.4531C135.204 7.40622 142.592 11.616 142.592 23.7674C142.592 23.8779 142.592 23.9884 142.592 24.0989C142.592 26.0077 141.92 26.7894 139.569 27.2369C133.439 28.4109 127.311 29.7285 121.18 31.0848C121.18 31.6732 121.18 32.2644 121.18 32.8527C121.18 44.6672 122.607 52.2249 130.669 50.7885C136.884 49.6946 140.158 44.3274 140.746 36.604C140.83 36.0929 140.999 35.7311 141.419 35.6592C141.588 35.6592 141.754 35.6565 141.923 35.6537C142.426 35.5653 142.511 35.883 142.426 36.3968C141.923 44.8826 137.892 51.9708 128.153 53.6806L128.15 53.6779ZM126.723 10.9945C122.438 12.0497 121.18 17.5909 121.18 29.3971C123.644 28.8474 126.105 28.3032 128.569 27.7701C131.173 27.2093 132.012 26.3834 132.012 23.6873C132.012 13.3949 130.669 10.0304 126.723 10.9917V10.9945Z" fill="white"/>
<path d="M170.467 48.6204C159.047 48.9547 151.574 41.8527 151.574 27.6654C151.574 13.9174 158.209 2.73273 169.375 1.5035C177.518 0.616793 184.91 6.79334 184.91 19.6713V20.0221C184.91 22.0469 184.237 22.7154 181.887 22.6905C175.756 22.6435 169.628 22.9861 163.498 23.6076V25.486C163.498 38.0628 164.925 46.162 172.986 45.9714C179.199 45.8857 182.475 40.9495 183.063 32.8724C183.148 32.3476 183.317 32.0023 183.736 32.0161C183.905 32.052 184.071 32.0852 184.24 32.1211C184.744 32.1404 184.828 32.494 184.744 33.0188C184.24 41.9384 180.209 48.4132 170.47 48.6177L170.467 48.6204ZM169.04 3.08631C164.759 3.53933 163.498 9.28772 163.498 21.8176C165.962 21.5607 168.423 21.3508 170.887 21.1906C173.49 21.0303 174.329 20.3149 174.329 17.4531C174.329 6.54197 172.986 2.69682 169.04 3.08631Z" fill="white"/>
<path d="M214.634 54.3766C211.276 53.2883 208.422 50.9044 206.572 47.9321C206.517 47.9183 206.462 47.9045 206.404 47.8907V60.5476C206.404 67.2407 206.488 67.6137 208.084 68.0529C209.202 68.365 210.324 68.6965 211.442 69.0445C212.03 69.2296 212.281 69.4009 212.281 69.9478V70.1301C212.281 70.5859 212.027 70.5942 211.442 70.4091C204.866 68.3484 198.287 66.9314 191.71 66.0281C191.207 65.959 190.956 65.8375 190.956 65.3955V65.2187C190.956 64.6856 191.207 64.6304 191.71 64.6994C192.409 64.7933 193.111 64.8955 193.81 65.0005C195.322 65.2353 195.406 64.9011 195.406 58.3046V10.3673C195.406 3.8648 195.322 3.58304 193.81 3.47255C193.111 3.42283 192.409 3.37863 191.71 3.34272C191.207 3.3151 190.956 3.21565 190.956 2.68529V2.5085C190.956 1.97813 191.207 1.89802 191.71 1.92565C196.19 2.16045 200.666 2.63004 205.145 3.38139C205.649 3.46702 205.903 3.96424 205.903 4.77636V11.3728C205.932 11.3783 205.958 11.3838 205.987 11.3894C207.749 5.77356 211.192 3.25432 216.734 4.78741C224.627 6.97241 230 19.0686 230 34.1675C230 50.4956 224.458 57.661 214.634 54.3849V54.3766ZM212.284 7.73205C209.176 6.99727 207.665 9.906 206.406 14.1738V45.4543C207.414 47.5896 209.176 49.6475 211.695 50.3768C216.061 51.6723 218.079 45.946 218.077 30.4079C218.077 15.1765 216.312 8.70991 212.284 7.73481V7.73205Z" fill="white"/>
</g>
<defs>
<clipPath id="clip0_3557_1040">
<rect width="230" height="70" fill="white" transform="translate(0 0.751953)"/>
</clipPath>
</defs>
</svg>
