<svg width="25" height="17" viewBox="0 0 25 17" fill="none" xmlns="http://www.w3.org/2000/svg">
<path d="M22.2615 4.38651C22.2713 4.57126 22.2713 4.74762 22.2713 4.93237C22.2713 10.5337 17.3099 16.9999 8.23694 16.9999C5.56094 16.9999 2.93378 16.3449 0.677734 15.102C1.06839 15.144 1.45905 15.1608 1.8497 15.1608C4.06668 15.1608 6.22506 14.5226 7.97325 13.3385C5.8637 13.3049 4.00808 12.1208 3.3635 10.3909C4.10575 10.5169 4.86753 10.4917 5.59024 10.3153C3.28537 9.91222 1.63484 8.17389 1.63484 6.15844C1.63484 6.14164 1.63484 6.12485 1.63484 6.10805C2.31849 6.43556 3.09004 6.62031 3.87135 6.63711C1.70321 5.39424 1.03909 2.91691 2.34779 0.977031C4.848 3.62232 8.54947 5.23468 12.5146 5.41104C12.1142 3.94143 12.6611 2.39625 13.9405 1.36333C15.9231 -0.240641 19.0484 -0.156664 20.9138 1.54808C22.0174 1.36333 23.0721 1.01062 24.0488 0.515155C23.6777 1.49769 22.9061 2.32907 21.8806 2.85812C22.8573 2.75735 23.8144 2.53061 24.7129 2.18631C24.0683 3.04287 23.2284 3.78188 22.2615 4.38651Z" fill="url(#paint0_linear_2561_106)"/>
<defs>
<linearGradient id="paint0_linear_2561_106" x1="0.687501" y1="8.60249" x2="24.7275" y2="8.60249" gradientUnits="userSpaceOnUse">
<stop offset="1" stop-color="white"/>
</linearGradient>
</defs>
</svg>
