<svg width="131" height="40" viewBox="0 0 131 40" fill="none" xmlns="http://www.w3.org/2000/svg">
<g clip-path="url(#clip0_2457_109)">
<path d="M11.2683 39.3668C7.69525 38.314 4.19183 36.1499 1.78654 33.8611C1.76332 34.1405 1.7401 34.4215 1.71687 34.7008C1.71687 35.0828 1.57919 35.1823 1.16781 34.9818C1.12136 34.9597 1.07657 34.9376 1.03012 34.9139C0.68675 34.745 0.549068 34.513 0.549068 34.1863C0.366598 30.0728 0.18247 25.964 0 21.8616C0 21.5348 0.0680115 21.407 0.481057 21.598C0.572291 21.6406 0.663526 21.6816 0.75642 21.7242C1.09979 21.8805 1.16781 22.0194 1.16947 22.3462C1.19269 22.7203 1.21591 23.0928 1.23748 23.4669C1.44317 28.1849 5.29162 36.4719 11.1323 38.2587C14.7734 39.34 17.1787 37.6873 17.1787 34.1484C17.1787 28.8053 13.3999 25.6957 8.72703 21.3817C4.60321 17.5808 0.892443 13.1216 0.892443 7.58273C0.892443 1.87025 5.08427 -0.933109 13.0549 0.275999C16.0092 0.721127 18.9636 1.76607 21.0935 2.92783C21.1399 2.60108 21.1847 2.27434 21.2312 1.9476C21.2312 1.60033 21.3689 1.43144 21.7803 1.43775C21.8267 1.43775 21.8715 1.43775 21.9179 1.43933C22.2613 1.44407 22.331 1.6177 22.331 1.96654V13.8682C22.331 14.217 22.2613 14.3891 21.8499 14.367C21.7355 14.3607 21.621 14.3544 21.5065 14.3481C21.1632 14.3275 21.0952 14.1492 21.0952 13.8019C21.0952 13.5699 21.0952 13.3394 21.0952 13.1074C21.0952 7.63325 17.2467 1.97601 12.9189 1.32726C9.82682 0.845826 8.17796 2.39746 8.17796 5.35393C8.17796 9.67894 11.5454 13.2558 15.9429 16.76C20.4781 20.3005 24.8756 23.6295 24.8756 30.199C24.8756 36.9502 19.448 41.7834 11.2717 39.3636L11.2683 39.3668Z" fill="white"/>
<path d="M59.3591 9.48977C58.5463 9.68708 58.3538 10.2285 57.541 12.8709C57.1263 14.4525 56.7116 16.0294 56.2969 17.5999C54.9101 23.0394 53.5234 28.4125 52.1366 33.7161C52.0885 33.9434 52.0404 34.0397 51.7534 34.0839C50.924 34.2149 50.0962 34.3412 49.2668 34.4627C49.0761 34.4912 49.028 34.4548 48.9318 34.207C47.4173 28.9539 45.9028 23.7512 44.3883 18.5912C44.3567 18.596 44.3252 18.6023 44.292 18.607C42.6498 24.2769 41.0076 29.8473 39.3654 35.3104C39.3173 35.5266 39.2692 35.615 39.0303 35.634C38.2009 35.6971 37.3731 35.7523 36.5437 35.7981C36.353 35.8092 36.2567 35.7713 36.1605 35.5235C34.4553 29.6279 32.7483 23.7781 31.0431 17.9662C29.9914 14.4556 29.8952 14.4683 29.0343 14.5014C28.9231 14.5062 28.8103 14.5093 28.6992 14.514C28.4122 14.5235 28.2679 14.4856 28.2695 14.2394V14.1163C28.2695 13.9111 28.4122 13.8653 28.6992 13.8558C32.0467 13.7359 35.3942 13.417 38.7433 12.9561C39.0303 12.9166 39.1729 12.9387 39.1746 13.1502C39.1746 13.1929 39.1746 13.2355 39.1746 13.2781C39.1746 13.5322 39.0319 13.5954 38.7433 13.6348C38.5675 13.6585 38.3933 13.6822 38.2175 13.7059C37.5954 13.7879 37.2603 13.87 37.2603 14.544C37.2603 15.0918 37.4511 15.9552 37.7862 17.3932C38.7101 21.03 39.6358 24.6841 40.5597 28.3572C40.5763 28.3556 40.5912 28.3541 40.6078 28.3525C41.3725 25.6864 42.1389 22.9967 42.9036 20.2833C43.2868 18.9858 43.7645 17.0191 43.7645 15.6016C43.7645 13.7106 43.0944 12.9719 41.9946 13.1518C41.8984 13.1676 41.8038 13.1834 41.7076 13.1976C41.4206 13.2434 41.278 13.2229 41.278 12.9671V12.8393C41.278 12.6262 41.4206 12.5615 41.7076 12.5141C44.7532 12.0216 47.7971 11.425 50.8427 10.762C51.1297 10.6989 51.2723 10.7115 51.2723 10.9309C51.2723 10.9751 51.2723 11.0193 51.2723 11.0619C51.2723 11.3255 51.1297 11.3997 50.8427 11.4613C50.6669 11.4992 50.4927 11.537 50.3169 11.5734C49.7429 11.6965 49.4078 11.8085 49.4078 12.462C49.4078 12.9861 49.5986 13.8606 50.0299 15.3901C51.0667 19.0695 52.1018 22.7726 53.1385 26.5025C53.1551 26.4994 53.17 26.4962 53.1866 26.493C53.8568 23.7418 54.5253 20.9731 55.1954 18.1871C55.5305 16.6102 55.9602 14.4304 55.9602 12.8756C55.9602 11.0998 55.29 10.459 54.1902 10.7131C54.031 10.7494 53.8717 10.7857 53.7125 10.822C53.4255 10.8867 53.2347 10.8867 53.2347 10.6215V10.4889C53.2347 10.268 53.3774 10.1922 53.6644 10.1259C55.6417 9.67288 57.6173 9.19618 59.5946 8.71001C59.8816 8.63898 60.0243 8.64845 60.0243 8.87259C60.0243 8.91679 60.0243 8.96257 60.0243 9.00676C60.0243 9.27668 59.8799 9.3556 59.5946 9.42664C59.515 9.44558 59.4354 9.4661 59.3558 9.48504L59.3591 9.48977Z" fill="white"/>
<path d="M72.9893 30.2435C66.485 31.4005 62.2285 27.8047 62.2285 20.1997C62.2285 12.7919 66.0073 6.58222 72.3672 4.97218C77.0069 3.80253 81.2153 6.20812 81.2153 13.1518C81.2153 13.2149 81.2153 13.2781 81.2153 13.3412C81.2153 14.4319 80.8321 14.8787 79.4935 15.1344C76.0017 15.8052 72.5115 16.5581 69.0197 17.3332C69.0197 17.6694 69.0197 18.0072 69.0197 18.3434C69.0197 25.0945 69.8325 29.4132 74.4241 28.5924C77.964 27.9673 79.8286 24.9004 80.1636 20.487C80.2117 20.1949 80.3079 19.9882 80.5468 19.9471C80.643 19.9471 80.7376 19.9455 80.8338 19.944C81.1208 19.8935 81.1689 20.075 81.1208 20.3686C80.8338 25.2176 78.538 29.268 72.9909 30.2451L72.9893 30.2435ZM72.1764 5.85296C69.7363 6.45594 69.0197 9.62235 69.0197 16.3687C70.4231 16.0546 71.8248 15.7437 73.2281 15.439C74.7111 15.1186 75.1888 14.6466 75.1888 13.106C75.1888 7.22466 74.4241 5.30208 72.1764 5.85139V5.85296Z" fill="white"/>
<path d="M97.0918 27.3533C90.5876 27.5443 86.3311 23.4861 86.3311 15.379C86.3311 7.52299 90.1098 1.13177 96.4697 0.429349C101.108 -0.0773393 105.318 3.45212 105.318 10.8109V11.0114C105.318 12.1684 104.935 12.5504 103.596 12.5362C100.104 12.5094 96.6141 12.7051 93.1222 13.0603V14.1336C93.1222 21.3204 93.9351 25.9485 98.5267 25.8396C102.065 25.7906 103.931 22.9699 104.266 18.3545C104.314 18.0545 104.41 17.8572 104.649 17.8651C104.746 17.8856 104.84 17.9046 104.936 17.9251C105.223 17.9362 105.271 18.1382 105.223 18.4381C104.936 23.535 102.641 27.2349 97.0935 27.3517L97.0918 27.3533ZM96.279 1.33381C93.8405 1.59268 93.1222 4.87748 93.1222 12.0374C94.5256 11.8906 95.9273 11.7707 97.3307 11.6791C98.8136 11.5876 99.2914 11.1787 99.2914 9.54343C99.2914 3.30848 98.5267 1.11125 96.279 1.33381Z" fill="white"/>
<path d="M122.248 30.6428C120.335 30.0209 118.71 28.6587 117.656 26.9602C117.625 26.9524 117.593 26.9445 117.56 26.9366V34.1691C117.56 37.9938 117.608 38.2068 118.517 38.4578C119.154 38.6362 119.793 38.8256 120.43 39.0245C120.765 39.1302 120.908 39.2281 120.908 39.5407V39.6448C120.908 39.9053 120.763 39.91 120.43 39.8043C116.684 38.6267 112.937 37.817 109.191 37.3008C108.904 37.2613 108.762 37.1919 108.762 36.9393V36.8383C108.762 36.5337 108.904 36.5021 109.191 36.5416C109.589 36.5952 109.989 36.6536 110.387 36.7136C111.248 36.8478 111.296 36.6568 111.296 32.8874V5.49464C111.296 1.77892 111.248 1.61792 110.387 1.55478C109.989 1.52637 109.589 1.50111 109.191 1.48059C108.904 1.46481 108.762 1.40798 108.762 1.10491V1.00389C108.762 0.700826 108.904 0.655051 109.191 0.670835C111.743 0.805005 114.292 1.07335 116.843 1.50269C117.13 1.55162 117.275 1.83575 117.275 2.29982V6.0692C117.291 6.07236 117.306 6.07552 117.323 6.07867C118.326 2.86964 120.287 1.43008 123.444 2.30613C127.939 3.5547 131 10.4668 131 19.0947C131 28.4251 127.843 32.5196 122.248 30.6476V30.6428ZM120.909 3.98878C119.139 3.56891 118.278 5.23103 117.562 7.66977V25.5444C118.136 26.7645 119.139 27.9405 120.574 28.3572C123.061 29.0975 124.21 25.8253 124.209 16.9464C124.209 8.24276 123.203 4.54756 120.909 3.99036V3.98878Z" fill="white"/>
</g>
<defs>
<clipPath id="clip0_2457_109">
<rect width="131" height="40" fill="white"/>
</clipPath>
</defs>
</svg>
